<svg width="43" height="43" viewBox="0 0 43 43" fill="none" xmlns="http://www.w3.org/2000/svg">
<path d="M30.4583 17.9167C32.3591 17.9167 34.1819 18.6717 35.5259 20.0157C36.8699 21.3597 37.625 23.1826 37.625 25.0833V34.0417C37.625 34.992 37.2475 35.9035 36.5755 36.5755C35.9035 37.2475 34.992 37.625 34.0417 37.625H8.95833C8.00797 37.625 7.09654 37.2475 6.42453 36.5755C5.75253 35.9035 5.375 34.992 5.375 34.0417V25.0833C5.375 23.1826 6.13006 21.3597 7.47407 20.0157C8.81808 18.6717 10.6409 17.9167 12.5417 17.9167V12.5417H16.125V17.9167H19.7083V12.5417H23.2917V17.9167H26.875V12.5417H30.4583V17.9167ZM12.5417 21.5C11.5913 21.5 10.6799 21.8775 10.0079 22.5495C9.33586 23.2215 8.95833 24.133 8.95833 25.0833V26.875H34.0417V25.0833C34.0417 24.133 33.6641 23.2215 32.9921 22.5495C32.3201 21.8775 31.4087 21.5 30.4583 21.5H12.5417ZM8.95833 30.4583V34.0417H34.0417V30.4583H8.95833ZM12.5417 7.16667C13.0168 7.16667 13.4726 6.9779 13.8086 6.6419C14.1446 6.3059 14.3333 5.85018 14.3333 5.375C14.8085 5.375 15.2642 5.56376 15.6002 5.89977C15.9362 6.23577 16.125 6.69149 16.125 7.16667V8.95833C16.125 9.43351 15.9362 9.88923 15.6002 10.2252C15.2642 10.5612 14.8085 10.75 14.3333 10.75C13.8582 10.75 13.4024 10.5612 13.0664 10.2252C12.7304 9.88923 12.5417 9.43351 12.5417 8.95833V7.16667ZM19.7083 7.16667C20.1835 7.16667 20.6392 6.9779 20.9752 6.6419C21.3112 6.3059 21.5 5.85018 21.5 5.375C21.9752 5.375 22.4309 5.56376 22.7669 5.89977C23.1029 6.23577 23.2917 6.69149 23.2917 7.16667V8.95833C23.2917 9.43351 23.1029 9.88923 22.7669 10.2252C22.4309 10.5612 21.9752 10.75 21.5 10.75C21.0248 10.75 20.5691 10.5612 20.2331 10.2252C19.8971 9.88923 19.7083 9.43351 19.7083 8.95833V7.16667ZM26.875 7.16667C27.3502 7.16667 27.8059 6.9779 28.1419 6.6419C28.4779 6.3059 28.6667 5.85018 28.6667 5.375C29.1418 5.375 29.5976 5.56376 29.9336 5.89977C30.2696 6.23577 30.4583 6.69149 30.4583 7.16667V8.95833C30.4583 9.43351 30.2696 9.88923 29.9336 10.2252C29.5976 10.5612 29.1418 10.75 28.6667 10.75C28.1915 10.75 27.7358 10.5612 27.3998 10.2252C27.0638 9.88923 26.875 9.43351 26.875 8.95833V7.16667Z" fill="black"/>
</svg>
