<svg width="48" height="48" viewBox="0 0 48 48" fill="none" xmlns="http://www.w3.org/2000/svg">
<path d="M24 4C26.0525 4 28.0265 4.78887 29.5136 6.20345C31.0008 7.61802 31.8874 9.55008 31.99 11.6L32 12L32.002 25.456L32.112 25.572C33.714 27.3174 34.7076 29.5347 34.944 31.892L34.986 32.444L35 33C34.9998 34.7656 34.5746 36.5052 33.7604 38.0718C32.9462 39.6384 31.7668 40.986 30.3219 42.0007C28.8771 43.0155 27.2092 43.6675 25.4592 43.9017C23.7092 44.1359 21.9286 43.9454 20.2677 43.3464C18.6069 42.7473 17.1146 41.7573 15.9171 40.4599C14.7195 39.1625 13.8519 37.596 13.3874 35.8926C12.923 34.1892 12.8754 32.399 13.2486 30.6733C13.6219 28.9476 14.4051 27.3372 15.532 25.978L15.89 25.568L15.998 25.454L16 12C15.9998 10.0177 16.7356 8.10591 18.0648 6.63523C19.3939 5.16455 21.2218 4.23972 23.194 4.04L23.6 4.01L24 4ZM24 8C22.9908 7.99968 22.0189 8.38081 21.2789 9.06699C20.5389 9.75317 20.0857 10.6937 20.01 11.7L20 12V27.186L19.334 27.782C18.2907 28.715 17.5511 29.9394 17.2106 31.297C16.8702 32.6546 16.9445 34.0831 17.424 35.398C17.9036 36.713 18.7663 37.854 19.9008 38.6737C21.0353 39.4934 22.3894 39.9542 23.7884 39.9965C25.1874 40.0389 26.567 39.6609 27.749 38.9114C28.9311 38.1618 29.8613 37.0752 30.4195 35.7917C30.9777 34.5082 31.1384 33.0868 30.8807 31.7111C30.6231 30.3354 29.9589 29.0685 28.974 28.074L28.668 27.784L28.002 27.188L28 12C28 10.9391 27.5786 9.92172 26.8284 9.17157C26.0783 8.42143 25.0609 8 24 8ZM24 16C24.5304 16 25.0391 16.2107 25.4142 16.5858C25.7893 16.9609 26 17.4696 26 18V28.416C27.0528 28.8755 27.9153 29.6835 28.4424 30.7041C28.9696 31.7247 29.1292 32.8957 28.8945 34.0201C28.6598 35.1446 28.0451 36.154 27.1537 36.8785C26.2624 37.6031 25.1487 37.9986 24 37.9986C22.8513 37.9986 21.7376 37.6031 20.8463 36.8785C19.9549 36.154 19.3402 35.1446 19.1055 34.0201C18.8708 32.8957 19.0304 31.7247 19.5576 30.7041C20.0847 29.6835 20.9472 28.8755 22 28.416V18C22 17.4696 22.2107 16.9609 22.5858 16.5858C22.9609 16.2107 23.4696 16 24 16Z" fill="black"/>
</svg>
