<svg width="52" height="52" viewBox="0 0 52 52" fill="none" xmlns="http://www.w3.org/2000/svg">
<rect width="52" height="52" fill="white"/>
<rect x="16" y="24" width="12" height="12" rx="2" fill="white" stroke="#FF1304" stroke-width="2"/>
<rect x="23" y="17" width="12" height="12" rx="2" fill="white" stroke="#FF1304" stroke-width="2"/>
<path d="M33.8363 35.1829L34.1685 35.5566L33.8363 35.1829ZM32.5008 35.897C32.4846 36.1727 32.6949 36.4093 32.9705 36.4255L37.4628 36.6898C37.7384 36.706 37.9751 36.4957 37.9913 36.22C38.0075 35.9443 37.7972 35.7077 37.5215 35.6915L33.5284 35.4566L33.7633 31.4635C33.7795 31.1879 33.5692 30.9512 33.2935 30.935C33.0179 30.9188 32.7812 31.1291 32.765 31.4048L32.5008 35.897ZM33.5041 34.8092L32.6677 35.5527L33.3321 36.3001L34.1685 35.5566L33.5041 34.8092ZM39.1869 24.9019C38.4204 28.7344 36.4253 32.2126 33.5041 34.8092L34.1685 35.5566C37.2522 32.8155 39.3583 29.1438 40.1675 25.098L39.1869 24.9019Z" fill="#FF1304"/>
<path d="M18.9398 16.9806L18.6679 16.5611L18.9398 16.9806ZM20.3679 16.4764C20.4256 16.2063 20.2534 15.9406 19.9833 15.883L15.5825 14.9435C15.3124 14.8858 15.0468 15.058 14.9891 15.3281C14.9315 15.5982 15.1037 15.8638 15.3737 15.9215L19.2856 16.7566L18.4505 20.6684C18.3928 20.9385 18.565 21.2041 18.8351 21.2618C19.1051 21.3194 19.3708 21.1472 19.4284 20.8772L20.3679 16.4764ZM19.2118 17.4002L20.1509 16.7915L19.607 15.9524L18.6679 16.5611L19.2118 17.4002ZM12.0984 26.3359C13.4347 22.6631 15.932 19.526 19.2118 17.4002L18.6679 16.5611C15.2056 18.8051 12.5694 22.1168 11.1586 25.994L12.0984 26.3359Z" fill="#FF1304"/>
</svg>
