<svg width="48" height="48" viewBox="0 0 48 48" fill="none" xmlns="http://www.w3.org/2000/svg">
<rect x="1" y="1" width="46" height="46" rx="7" fill="white" stroke="black" stroke-width="2"/>
<line x1="10.5" y1="20.5" x2="38.5" y2="20.5" stroke="black" stroke-linecap="round"/>
<line x1="19.5" y1="12.5" x2="38.5" y2="12.5" stroke="black" stroke-linecap="round"/>
<line x1="10.5" y1="12.5" x2="17.5" y2="12.5" stroke="black" stroke-linecap="round"/>
<path d="M17.545 29.6016C17.4804 29.3769 17.3896 29.1784 17.2726 29.006C17.1557 28.8306 17.0126 28.6829 16.8433 28.5629C16.6771 28.4397 16.4863 28.3459 16.2709 28.2812C16.0585 28.2166 15.8231 28.1843 15.5645 28.1843C15.0814 28.1843 14.6566 28.3043 14.2904 28.5444C13.9272 28.7844 13.6441 29.1338 13.441 29.5923C13.2378 30.0478 13.1363 30.6049 13.1363 31.2635C13.1363 31.9221 13.2363 32.4822 13.4363 32.9439C13.6364 33.4055 13.9195 33.7579 14.2858 34.0011C14.652 34.2411 15.0844 34.3612 15.583 34.3612C16.0354 34.3612 16.4217 34.2811 16.7417 34.1211C17.0649 33.958 17.3111 33.7287 17.4804 33.4332C17.6527 33.1378 17.7389 32.7885 17.7389 32.3853L18.1452 32.4453H15.7077V30.9403H19.664V32.1314C19.664 32.9624 19.4885 33.6764 19.1377 34.2734C18.7868 34.8674 18.3037 35.326 17.6881 35.6491C17.0726 35.9692 16.3678 36.1293 15.5738 36.1293C14.6874 36.1293 13.9088 35.9338 13.2378 35.543C12.5669 35.149 12.0437 34.5904 11.6682 33.8672C11.2958 33.1409 11.1096 32.2791 11.1096 31.282C11.1096 30.5156 11.2204 29.8324 11.442 29.2322C11.6667 28.629 11.9806 28.1181 12.3838 27.6996C12.787 27.281 13.2563 26.9625 13.7918 26.744C14.3273 26.5254 14.9075 26.4162 15.5322 26.4162C16.0677 26.4162 16.5663 26.4947 17.028 26.6516C17.4896 26.8055 17.8989 27.024 18.2559 27.3072C18.616 27.5903 18.9099 27.9273 19.1377 28.3182C19.3654 28.706 19.5116 29.1338 19.5763 29.6016H17.545ZM26.2944 29.2646C26.2575 28.8922 26.099 28.6029 25.8189 28.3967C25.5388 28.1905 25.1587 28.0874 24.6786 28.0874C24.3524 28.0874 24.0769 28.1335 23.8523 28.2259C23.6276 28.3151 23.4553 28.4397 23.3352 28.5998C23.2183 28.7598 23.1598 28.9414 23.1598 29.1445C23.1536 29.3138 23.189 29.4615 23.266 29.5877C23.346 29.7139 23.4553 29.8232 23.5938 29.9155C23.7322 30.0047 23.8923 30.0832 24.0739 30.1509C24.2554 30.2156 24.4493 30.271 24.6555 30.3171L25.505 30.5202C25.9174 30.6126 26.2959 30.7357 26.6406 30.8896C26.9853 31.0434 27.2839 31.2327 27.5362 31.4574C27.7886 31.6821 27.984 31.9467 28.1225 32.2514C28.2641 32.5561 28.3364 32.9054 28.3395 33.2994C28.3364 33.878 28.1887 34.3796 27.8963 34.8043C27.607 35.226 27.1884 35.5537 26.6406 35.7876C26.0959 36.0185 25.4388 36.1339 24.6694 36.1339C23.9061 36.1339 23.2414 36.0169 22.6751 35.783C22.1119 35.5491 21.6718 35.2029 21.3548 34.7443C21.0408 34.2827 20.8762 33.7118 20.8608 33.0316H22.7951C22.8166 33.3486 22.9074 33.6133 23.0675 33.8256C23.2306 34.0349 23.4476 34.1934 23.7184 34.3011C23.9923 34.4058 24.3016 34.4581 24.6463 34.4581C24.9848 34.4581 25.2788 34.4089 25.5281 34.3104C25.7804 34.2119 25.9759 34.0749 26.1143 33.8995C26.2528 33.7241 26.3221 33.5225 26.3221 33.2947C26.3221 33.0824 26.259 32.9039 26.1328 32.7592C26.0097 32.6146 25.8281 32.4915 25.5881 32.3899C25.3511 32.2884 25.0603 32.196 24.7156 32.1129L23.6861 31.8544C22.889 31.6605 22.2596 31.3574 21.7979 30.945C21.3363 30.5326 21.107 29.977 21.1101 29.2784C21.107 28.706 21.2594 28.2058 21.5671 27.7781C21.878 27.3503 22.3042 27.0163 22.8459 26.7763C23.3875 26.5362 24.0031 26.4162 24.6925 26.4162C25.3942 26.4162 26.0066 26.5362 26.5298 26.7763C27.0561 27.0163 27.4654 27.3503 27.7578 27.7781C28.0502 28.2058 28.201 28.7013 28.2102 29.2646H26.2944ZM29.324 28.1935V26.5455H37.0889V28.1935H34.1943V36H32.2185V28.1935H29.324Z" fill="black"/>
</svg>
