<svg width="48" height="48" viewBox="0 0 48 48" fill="none" xmlns="http://www.w3.org/2000/svg">
<g filter="url(#filter0_dd_3_269)">
<rect x="5" y="1" width="38" height="38" rx="10" fill="white" stroke="black" stroke-width="2"/>
<path d="M11.5004 29.9667C11.482 30.7949 12.1384 31.4812 12.9667 31.4996L26.4633 31.7996C27.2916 31.818 27.9779 31.1615 27.9963 30.3333C28.0147 29.505 27.3582 28.8187 26.53 28.8003L14.533 28.5337L14.7996 16.5367C14.818 15.7084 14.1615 15.0221 13.3332 15.0037C12.505 14.9853 11.8187 15.6418 11.8003 16.47L11.5004 29.9667ZM34.9632 6.91604L11.9632 28.916L14.0368 31.084L37.0368 9.08396L34.9632 6.91604Z" fill="black"/>
<path d="M38.2699 7.01774C38.2797 6.18937 37.6161 5.5099 36.7878 5.50011L23.2887 5.34052C22.4603 5.33073 21.7809 5.99432 21.7711 6.82269C21.7613 7.65106 22.4249 8.33052 23.2532 8.34031L35.2524 8.48217L35.1105 20.4813C35.1008 21.3097 35.7643 21.9892 36.5927 21.999C37.4211 22.0088 38.1005 21.3452 38.1103 20.5168L38.2699 7.01774ZM15.048 30.3111L37.8181 8.07313L35.722 5.92688L12.952 28.1648L15.048 30.3111Z" fill="black"/>
</g>
<defs>
<filter id="filter0_dd_3_269" x="0" y="0" width="48" height="48" filterUnits="userSpaceOnUse" color-interpolation-filters="sRGB">
<feFlood flood-opacity="0" result="BackgroundImageFix"/>
<feColorMatrix in="SourceAlpha" type="matrix" values="0 0 0 0 0 0 0 0 0 0 0 0 0 0 0 0 0 0 127 0" result="hardAlpha"/>
<feOffset dy="4"/>
<feGaussianBlur stdDeviation="2"/>
<feComposite in2="hardAlpha" operator="out"/>
<feColorMatrix type="matrix" values="0 0 0 0 0 0 0 0 0 0 0 0 0 0 0 0 0 0 0.25 0"/>
<feBlend mode="normal" in2="BackgroundImageFix" result="effect1_dropShadow_3_269"/>
<feColorMatrix in="SourceAlpha" type="matrix" values="0 0 0 0 0 0 0 0 0 0 0 0 0 0 0 0 0 0 127 0" result="hardAlpha"/>
<feOffset dy="4"/>
<feGaussianBlur stdDeviation="2"/>
<feComposite in2="hardAlpha" operator="out"/>
<feColorMatrix type="matrix" values="0 0 0 0 0 0 0 0 0 0 0 0 0 0 0 0 0 0 0.25 0"/>
<feBlend mode="normal" in2="effect1_dropShadow_3_269" result="effect2_dropShadow_3_269"/>
<feBlend mode="normal" in="SourceGraphic" in2="effect2_dropShadow_3_269" result="shape"/>
</filter>
</defs>
</svg>
