<svg width="48" height="48" viewBox="0 0 48 48" fill="none" xmlns="http://www.w3.org/2000/svg">
<rect width="48" height="48" fill="white"/>
<line x1="7.19995" y1="23" x2="39.6" y2="23" stroke="black" stroke-width="2"/>
<line x1="39.0249" y1="26.4767" x2="7.20439" y2="26.5387" stroke="black" stroke-width="2"/>
<line x1="38.9599" y1="22.8709" x2="32.5967" y2="17.5682" stroke="black" stroke-width="2"/>
<path d="M7.96654 26.4842L14.3401 31.7745" stroke="black" stroke-width="2"/>
<path d="M12.8008 12.9818H14.3178L15.9201 16.8909H15.9883L17.5906 12.9818H19.1076V18.8H17.9144V15.0131H17.8661L16.3605 18.7716H15.548L14.0423 14.9989H13.994V18.8H12.8008V12.9818ZM20.1211 18.8V12.9818H22.4507C22.8787 12.9818 23.2357 13.0453 23.5217 13.1721C23.8077 13.299 24.0226 13.4752 24.1666 13.7006C24.3105 13.924 24.3825 14.1816 24.3825 14.4733C24.3825 14.7006 24.337 14.9004 24.2461 15.0727C24.1552 15.2432 24.0302 15.3833 23.8711 15.4932C23.7139 15.6011 23.534 15.6778 23.3313 15.7233V15.7801C23.5529 15.7896 23.7603 15.8521 23.9535 15.9676C24.1486 16.0831 24.3067 16.2451 24.4279 16.4534C24.5491 16.6598 24.6097 16.906 24.6097 17.192C24.6097 17.5007 24.533 17.7763 24.3796 18.0187C24.2281 18.2593 24.0037 18.4496 23.7063 18.5898C23.409 18.7299 23.0425 18.8 22.6069 18.8H20.1211ZM21.3512 17.7943H22.3541C22.6969 17.7943 22.9469 17.729 23.1041 17.5983C23.2613 17.4657 23.3399 17.2896 23.3399 17.0699C23.3399 16.9089 23.301 16.7668 23.2234 16.6437C23.1457 16.5206 23.0349 16.424 22.891 16.354C22.749 16.2839 22.5794 16.2489 22.3825 16.2489H21.3512V17.7943ZM21.3512 15.4165H22.2632C22.4317 15.4165 22.5813 15.3871 22.712 15.3284C22.8446 15.2678 22.9488 15.1826 23.0245 15.0727C23.1022 14.9629 23.141 14.8312 23.141 14.6778C23.141 14.4676 23.0662 14.2981 22.9166 14.1693C22.7688 14.0405 22.5586 13.9761 22.2859 13.9761H21.3512V15.4165Z" fill="black"/>
<path d="M27.4762 30.4625C27.4365 30.3242 27.3806 30.2021 27.3086 30.096C27.2367 29.9881 27.1486 29.8972 27.0444 29.8233C26.9421 29.7475 26.8247 29.6898 26.6921 29.65C26.5615 29.6102 26.4166 29.5903 26.2575 29.5903C25.9601 29.5903 25.6988 29.6642 25.4734 29.8119C25.2499 29.9597 25.0757 30.1746 24.9507 30.4568C24.8257 30.7371 24.7632 31.0799 24.7632 31.4852C24.7632 31.8905 24.8247 32.2352 24.9478 32.5193C25.0709 32.8034 25.2452 33.0203 25.4706 33.1699C25.6959 33.3176 25.962 33.3915 26.2688 33.3915C26.5473 33.3915 26.7849 33.3422 26.9819 33.2437C27.1808 33.1434 27.3323 33.0023 27.4365 32.8204C27.5425 32.6386 27.5956 32.4237 27.5956 32.1756L27.8456 32.2125H26.3456V31.2864H28.7802V32.0193C28.7802 32.5307 28.6723 32.9701 28.4563 33.3375C28.2404 33.703 27.9431 33.9852 27.5643 34.1841C27.1855 34.3811 26.7518 34.4795 26.2632 34.4795C25.7177 34.4795 25.2385 34.3593 24.8257 34.1187C24.4128 33.8763 24.0908 33.5326 23.8598 33.0875C23.6306 32.6405 23.516 32.1102 23.516 31.4966C23.516 31.025 23.5842 30.6045 23.7206 30.2352C23.8588 29.864 24.052 29.5496 24.3001 29.292C24.5482 29.0345 24.837 28.8384 25.1666 28.704C25.4961 28.5695 25.8531 28.5023 26.2376 28.5023C26.5671 28.5023 26.874 28.5506 27.1581 28.6472C27.4421 28.7418 27.694 28.8763 27.9137 29.0506C28.1353 29.2248 28.3162 29.4322 28.4563 29.6727C28.5965 29.9114 28.6865 30.1746 28.7262 30.4625H27.4762ZM29.7042 34.4V28.5818H32.0338C32.4618 28.5818 32.8188 28.6453 33.1048 28.7722C33.3908 28.899 33.6057 29.0752 33.7497 29.3006C33.8936 29.524 33.9656 29.7816 33.9656 30.0733C33.9656 30.3006 33.9201 30.5004 33.8292 30.6727C33.7383 30.8432 33.6133 30.9833 33.4542 31.0932C33.297 31.2011 33.1171 31.2778 32.9144 31.3233V31.3801C33.136 31.3896 33.3434 31.4521 33.5366 31.5676C33.7317 31.6831 33.8898 31.8451 34.011 32.0534C34.1322 32.2598 34.1929 32.5061 34.1929 32.792C34.1929 33.1008 34.1161 33.3763 33.9627 33.6187C33.8112 33.8593 33.5868 34.0496 33.2894 34.1898C32.9921 34.3299 32.6256 34.4 32.19 34.4H29.7042ZM30.9343 33.3943H31.9372C32.28 33.3943 32.53 33.329 32.6872 33.1983C32.8444 33.0657 32.923 32.8896 32.923 32.6699C32.923 32.5089 32.8841 32.3668 32.8065 32.2437C32.7288 32.1206 32.618 32.024 32.4741 31.954C32.3321 31.8839 32.1626 31.8489 31.9656 31.8489H30.9343V33.3943ZM30.9343 31.0165H31.8463C32.0148 31.0165 32.1644 30.9871 32.2951 30.9284C32.4277 30.8678 32.5319 30.7826 32.6076 30.6727C32.6853 30.5629 32.7241 30.4312 32.7241 30.2778C32.7241 30.0676 32.6493 29.8981 32.4997 29.7693C32.3519 29.6405 32.1417 29.5761 31.869 29.5761H30.9343V31.0165Z" fill="black"/>
</svg>
