<svg width="40" height="40" viewBox="0 0 40 40" fill="none" xmlns="http://www.w3.org/2000/svg">
<rect x="1" y="1" width="38" height="38" rx="7" fill="white" stroke="black" stroke-width="2"/>
<path d="M10.0437 12.55C9.80097 11.8218 10.1472 11.0278 10.846 10.7101L14.3911 9.09873C14.5478 9.02749 14.7157 8.98376 14.8872 8.96946L20.2928 8.519C20.4167 8.50868 20.5414 8.51379 20.664 8.53423L26.1668 9.45137C26.2918 9.4722 26.4136 9.50878 26.5294 9.56024L29.0116 10.6634C29.7562 10.9943 30.1004 11.859 29.787 12.6111L28.7535 15.0917C28.4512 15.8172 27.6401 16.1863 26.8945 15.9378L24.466 15.1283C24.2111 15.0433 23.9441 15 23.6754 15H20H15.8246C15.5559 15 15.2889 15.0433 15.034 15.1283L12.7393 15.8932C11.9533 16.1552 11.1039 15.7304 10.8419 14.9445L10.0437 12.55Z" fill="white" stroke="black"/>
</svg>
