<svg width="47" height="46" viewBox="0 0 47 46" fill="none" xmlns="http://www.w3.org/2000/svg">
<rect width="46" height="46" fill="white"/>
<path d="M3 20.5L4.95856 17.758C6.95584 14.9618 9.60678 12.6966 12.6803 11.1599V11.1599C14.2209 10.3895 15.8503 9.81105 17.5318 9.43738L18.5894 9.20235C22.1589 8.40914 25.8527 8.3529 29.4447 9.03708L31.1135 9.35495C33.3508 9.78111 35.4869 10.6281 37.4084 11.8508V11.8508C39.1237 12.9424 40.6417 14.3167 41.8978 15.9154L45.5 20.5" stroke="black" stroke-width="2" stroke-linecap="round"/>
<path d="M45.4938 25L43.5827 27.7753C41.6339 30.6055 39.0223 32.916 35.9758 34.5054V34.5054C34.4486 35.3022 32.8294 35.9086 31.1546 36.3112L30.1012 36.5644C26.5459 37.419 22.8536 37.5388 19.2504 36.9165L17.5763 36.6275C15.332 36.2399 13.1816 35.4298 11.2394 34.2403V34.2403C9.5055 33.1785 7.96412 31.8305 6.68064 30.2536L3.00007 25.7317" stroke="black" stroke-width="2" stroke-linecap="round"/>
<path d="M46 20L45 12" stroke="black" stroke-width="2" stroke-linecap="round"/>
<path d="M3.00001 25.7317L5 34" stroke="black" stroke-width="2" stroke-linecap="round"/>
<path d="M21.4785 29.1293C20.783 29.1293 20.1905 28.94 19.7012 28.5614C19.2118 28.1798 18.8379 27.6274 18.5794 26.9041C18.3208 26.1778 18.1916 25.3007 18.1916 24.2727C18.1916 23.2509 18.3208 22.3784 18.5794 21.6552C18.841 20.9289 19.2164 20.3749 19.7058 19.9933C20.1982 19.6085 20.7891 19.4162 21.4785 19.4162C22.1679 19.4162 22.7573 19.6085 23.2466 19.9933C23.7391 20.3749 24.1145 20.9289 24.373 21.6552C24.6346 22.3784 24.7654 23.2509 24.7654 24.2727C24.7654 25.3007 24.6362 26.1778 24.3777 26.9041C24.1191 27.6274 23.7452 28.1798 23.2559 28.5614C22.7665 28.94 22.1741 29.1293 21.4785 29.1293ZM21.4785 28.1136C22.1679 28.1136 22.7034 27.7812 23.085 27.1165C23.4667 26.4517 23.6575 25.5038 23.6575 24.2727C23.6575 23.4541 23.5698 22.757 23.3944 22.1815C23.222 21.6059 22.9727 21.1674 22.6465 20.8658C22.3233 20.5642 21.934 20.4134 21.4785 20.4134C20.7953 20.4134 20.2613 20.7504 19.8766 21.4244C19.4919 22.0953 19.2995 23.0447 19.2995 24.2727C19.2995 25.0914 19.3857 25.7869 19.5581 26.3594C19.7304 26.9318 19.9782 27.3673 20.3013 27.6658C20.6275 27.9644 21.0199 28.1136 21.4785 28.1136ZM29.8436 19.5455V29H28.6987V20.7457H28.6433L26.335 22.2784V21.1151L28.6987 19.5455H29.8436Z" fill="black"/>
</svg>
