<svg width="48" height="48" viewBox="0 0 48 48" fill="none" xmlns="http://www.w3.org/2000/svg">
<rect width="48" height="48" fill="white"/>
<path d="M10.7508 20.2898C10.216 20.4274 9.89393 20.9725 10.0315 21.5074C10.1691 22.0423 10.7143 22.3643 11.2492 22.2267L10.7508 20.2898ZM17.5837 19.5644L17.8329 20.5329L17.5837 19.5644ZM24.2256 16.3817L23.6268 15.5807L24.2256 16.3817ZM35.4381 8L23.9718 9.36304L30.8854 18.6116L35.4381 8ZM11.2492 22.2267L17.8329 20.5329L17.3346 18.5959L10.7508 20.2898L11.2492 22.2267ZM24.8243 17.1826L28.8283 14.1895L27.6308 12.5876L23.6268 15.5807L24.8243 17.1826ZM17.8329 20.5329C20.3596 19.8828 22.7347 18.7447 24.8243 17.1826L23.6268 15.5807C21.7462 16.9866 19.6086 18.0109 17.3346 18.5959L17.8329 20.5329Z" fill="black"/>
<line x1="35.2192" y1="38.1291" x2="35.2192" y2="16.1291" stroke="black" stroke-width="2" stroke-linecap="round"/>
<line x1="24.2192" y1="38.1291" x2="24.2192" y2="24.1291" stroke="black" stroke-width="2" stroke-linecap="round"/>
<line x1="12.2192" y1="38.1291" x2="12.2192" y2="28.1291" stroke="black" stroke-width="2" stroke-linecap="round"/>
</svg>
