<svg width="48" height="48" viewBox="0 0 48 48" fill="none" xmlns="http://www.w3.org/2000/svg">
<path d="M40.78 17.12L38.3 20.84C39.4863 23.2062 40.0671 25.8297 39.9903 28.4755C39.9135 31.1212 39.1816 33.7066 37.86 36H10.14C8.42231 33.0202 7.71056 29.5662 8.11025 26.1501C8.50994 22.734 9.99979 19.5377 12.3589 17.0349C14.7181 14.5321 17.8209 12.8561 21.2074 12.2554C24.594 11.6547 28.084 12.1613 31.16 13.7L34.88 11.22C30.9391 8.66584 26.225 7.57993 21.5638 8.15255C16.9026 8.72517 12.5916 10.9198 9.38608 14.3519C6.18057 17.784 4.28503 22.2346 4.0316 26.924C3.77817 31.6134 5.18301 36.2424 7.99997 40H40C42.4531 36.7225 43.8414 32.7711 43.9773 28.6795C44.1132 24.5879 42.9902 20.5531 40.76 17.12H40.78Z" fill="black"/>
<path d="M21.18 30.82C21.5515 31.1919 21.9926 31.4869 22.4782 31.6882C22.9638 31.8895 23.4843 31.9931 24.01 31.9931C24.5356 31.9931 25.0562 31.8895 25.5417 31.6882C26.0273 31.4869 26.4685 31.1919 26.84 30.82L38.16 13.84L21.18 25.16C20.8081 25.5315 20.513 25.9726 20.3117 26.4582C20.1104 26.9438 20.0068 27.4643 20.0068 27.99C20.0068 28.5157 20.1104 29.0362 20.3117 29.5218C20.513 30.0073 20.8081 30.4485 21.18 30.82Z" fill="black"/>
</svg>
