<svg width="46" height="46" viewBox="0 0 46 46" fill="none" xmlns="http://www.w3.org/2000/svg">
<circle cx="23" cy="23" r="22" fill="white" stroke="black" stroke-width="2"/>
<path d="M22.2441 34.3636V10.7273H23.7583V34.3636H22.2441ZM27.3406 17.8182C27.2298 16.8826 26.7805 16.1562 25.9926 15.6392C25.2048 15.1222 24.2384 14.8636 23.0935 14.8636C22.2564 14.8636 21.5239 14.9991 20.896 15.2699C20.2744 15.5407 19.7881 15.9131 19.4372 16.3871C19.0925 16.861 18.9202 17.3996 18.9202 18.0028C18.9202 18.5076 19.0402 18.9415 19.2803 19.3047C19.5265 19.6617 19.8404 19.9602 20.222 20.2003C20.6037 20.4342 21.0038 20.6281 21.4223 20.782C21.8409 20.9297 22.2256 21.0497 22.5764 21.142L24.4969 21.6591C24.9893 21.7884 25.5371 21.9669 26.1404 22.1946C26.7497 22.4223 27.3314 22.7332 27.8854 23.1271C28.4455 23.5149 28.9072 24.0135 29.2703 24.6229C29.6335 25.2322 29.8151 25.9801 29.8151 26.8665C29.8151 27.8883 29.5473 28.8116 29.0118 29.6364C28.4825 30.4612 27.7069 31.1167 26.6851 31.603C25.6695 32.0893 24.4353 32.3324 22.9827 32.3324C21.6285 32.3324 20.4559 32.1139 19.4649 31.6768C18.4801 31.2398 17.7045 30.6304 17.1382 29.8487C16.5781 29.067 16.2611 28.1591 16.1872 27.125H18.5509C18.6124 27.839 18.8525 28.4299 19.271 28.8977C19.6958 29.3594 20.2313 29.7041 20.8776 29.9318C21.53 30.1534 22.2317 30.2642 22.9827 30.2642C23.8567 30.2642 24.6415 30.1226 25.3371 29.8395C26.0326 29.5502 26.5835 29.1501 26.9898 28.6392C27.396 28.1222 27.5992 27.5189 27.5992 26.8295C27.5992 26.2017 27.4237 25.6908 27.0729 25.2969C26.722 24.9029 26.2604 24.5829 25.6879 24.3366C25.1155 24.0904 24.4969 23.875 23.8321 23.6903L21.5054 23.0256C20.0281 22.6009 18.8586 21.9946 17.9969 21.2067C17.1352 20.4188 16.7043 19.3878 16.7043 18.1136C16.7043 17.0549 16.9905 16.1316 17.5629 15.3438C18.1415 14.5497 18.9171 13.9342 19.8896 13.4972C20.8683 13.054 21.9609 12.8324 23.1673 12.8324C24.3861 12.8324 25.4694 13.0509 26.4173 13.4879C27.3653 13.9188 28.1162 14.5097 28.6702 15.2607C29.2303 16.0116 29.5258 16.8641 29.5566 17.8182H27.3406Z" fill="black"/>
<path d="M22.2441 34.3636H16.2441V40.3636H22.2441V34.3636ZM22.2441 10.7273V4.72727H16.2441V10.7273H22.2441ZM23.7583 10.7273H29.7583V4.72727H23.7583V10.7273ZM23.7583 34.3636V40.3636H29.7583V34.3636H23.7583ZM27.3406 17.8182L21.3823 18.5238L22.0092 23.8182H27.3406V17.8182ZM25.9926 15.6392L22.7007 20.6555L22.7007 20.6555L25.9926 15.6392ZM20.896 15.2699L18.5195 9.76062L18.5096 9.76489L18.4997 9.7692L20.896 15.2699ZM19.4372 16.3871L14.6148 12.8172L14.5997 12.8376L14.5848 12.858L19.4372 16.3871ZM19.2803 19.3047L14.275 22.6133L14.3075 22.6625L14.341 22.7111L19.2803 19.3047ZM20.222 20.2003L17.0273 25.279L17.0569 25.2976L17.0867 25.3159L20.222 20.2003ZM21.4223 20.782L19.3519 26.4134L19.3886 26.4269L19.4254 26.4399L21.4223 20.782ZM22.5764 21.142L24.1363 15.3484L24.1198 15.3439L24.1034 15.3396L22.5764 21.142ZM24.4969 21.6591L22.9371 27.4528L22.9553 27.4577L22.9735 27.4625L24.4969 21.6591ZM26.1404 22.1946L24.0211 27.8079L24.0304 27.8114L24.0398 27.8149L26.1404 22.1946ZM27.8854 23.1271L24.4082 28.0169L24.439 28.0388L24.4701 28.0603L27.8854 23.1271ZM29.2703 24.6229L34.4245 21.5512L34.4244 21.5512L29.2703 24.6229ZM29.0118 29.6364L23.9794 26.3691L23.9708 26.3823L23.9623 26.3956L29.0118 29.6364ZM26.6851 31.603L24.1068 26.1852L24.094 26.1913L26.6851 31.603ZM19.4649 31.6768L17.0313 37.1611L17.0439 37.1667L19.4649 31.6768ZM17.1382 29.8487L12.261 33.3434L12.2701 33.3561L12.2792 33.3686L17.1382 29.8487ZM16.1872 27.125V21.125H9.74338L10.2025 27.5525L16.1872 27.125ZM18.5509 27.125L24.5287 26.6097L24.0559 21.125H18.5509V27.125ZM19.271 28.8977L14.7996 32.8985L14.8273 32.9295L14.8555 32.9601L19.271 28.8977ZM20.8776 29.9318L18.8835 35.5908L18.9157 35.6021L18.9481 35.6131L20.8776 29.9318ZM25.3371 29.8395L27.5993 35.3967L27.6203 35.3881L27.6413 35.3794L25.3371 29.8395ZM26.9898 28.6392L31.686 32.3736L31.6969 32.3599L31.7077 32.3461L26.9898 28.6392ZM27.0729 25.2969L31.5535 21.3063L31.5535 21.3063L27.0729 25.2969ZM25.6879 24.3366L23.3173 29.8484L23.3173 29.8484L25.6879 24.3366ZM23.8321 23.6903L22.1838 29.4595L22.205 29.4655L22.2263 29.4714L23.8321 23.6903ZM21.5054 23.0256L19.8476 28.792L19.8571 28.7947L21.5054 23.0256ZM17.9969 21.2067L13.9483 25.6348L13.9483 25.6348L17.9969 21.2067ZM17.5629 15.3438L12.7138 11.8102L12.7089 11.817L17.5629 15.3438ZM19.8896 13.4972L22.349 18.97L22.3568 18.9664L22.3647 18.9629L19.8896 13.4972ZM26.4173 13.4879L23.9052 18.9367L23.9199 18.9435L23.9345 18.9501L26.4173 13.4879ZM28.6702 15.2607L23.8418 18.8225L23.8513 18.8353L23.8607 18.848L28.6702 15.2607ZM29.5566 17.8182V23.8182H35.7532L35.5534 17.6247L29.5566 17.8182ZM28.2441 34.3636V10.7273H16.2441V34.3636H28.2441ZM22.2441 16.7273H23.7583V4.72727H22.2441V16.7273ZM17.7583 10.7273V34.3636H29.7583V10.7273H17.7583ZM23.7583 28.3636H22.2441V40.3636H23.7583V28.3636ZM33.299 17.1126C32.9797 14.4162 31.5539 12.1122 29.2846 10.6229L22.7007 20.6555C22.4391 20.4838 22.0998 20.1838 21.818 19.7284C21.5363 19.2729 21.4191 18.8351 21.3823 18.5238L33.299 17.1126ZM29.2846 10.6229C27.3263 9.33777 25.1544 8.86364 23.0935 8.86364V20.8636C23.2162 20.8636 23.2156 20.8776 23.1264 20.8537C23.0294 20.8278 22.874 20.7692 22.7007 20.6555L29.2846 10.6229ZM23.0935 8.86364C21.6176 8.86364 20.0461 9.10209 18.5195 9.76062L23.2726 20.7792C23.0017 20.896 22.8951 20.8636 23.0935 20.8636V8.86364ZM18.4997 9.7692C17.0607 10.3961 15.6799 11.3784 14.6148 12.8172L24.2597 19.9569C23.8963 20.4479 23.4881 20.6853 23.2924 20.7706L18.4997 9.7692ZM14.5848 12.858C13.4712 14.3892 12.9202 16.1713 12.9202 18.0028H24.9202C24.9202 18.2804 24.8792 18.6151 24.764 18.9751C24.6482 19.3369 24.4797 19.6549 24.2897 19.9161L14.5848 12.858ZM12.9202 18.0028C12.9202 19.4919 13.2877 21.1197 14.275 22.6133L24.2856 15.9961C24.7928 16.7633 24.9202 17.5232 24.9202 18.0028H12.9202ZM14.341 22.7111C15.0676 23.7647 15.9846 24.6232 17.0273 25.279L23.4167 15.1215C23.6962 15.2973 23.9854 15.5587 24.2195 15.8983L14.341 22.7111ZM17.0867 25.3159C17.8042 25.7556 18.5609 26.1226 19.3519 26.4134L23.4927 15.1505C23.4467 15.1336 23.4032 15.1127 23.3574 15.0847L17.0867 25.3159ZM19.4254 26.4399C19.9659 26.6307 20.5098 26.8025 21.0495 26.9445L24.1034 15.3396C23.9414 15.297 23.7159 15.2287 23.4192 15.124L19.4254 26.4399ZM21.0166 26.9357L22.9371 27.4528L26.0567 15.8654L24.1363 15.3484L21.0166 26.9357ZM22.9735 27.4625C23.2194 27.527 23.5643 27.6354 24.0211 27.8079L28.2597 16.5813C27.5099 16.2983 26.7593 16.0497 26.0203 15.8557L22.9735 27.4625ZM24.0398 27.8149C24.139 27.852 24.2603 27.9117 24.4082 28.0169L31.3625 18.2374C30.4025 17.5547 29.3604 16.9927 28.2409 16.5743L24.0398 27.8149ZM24.4701 28.0603C24.3918 28.0061 24.316 27.9406 24.2492 27.8684C24.1828 27.7967 24.1399 27.7343 24.1162 27.6945L34.4244 21.5512C33.6402 20.2352 32.5962 19.0909 31.3006 18.194L24.4701 28.0603ZM24.1162 27.6945C23.8033 27.1694 23.8151 26.7942 23.8151 26.8665H35.8151C35.8151 25.1661 35.4637 23.2951 34.4245 21.5512L24.1162 27.6945ZM23.8151 26.8665C23.8151 26.8474 23.8185 26.7687 23.8517 26.6541C23.8854 26.5379 23.9343 26.4386 23.9794 26.3691L34.0442 32.9037C35.2367 31.0669 35.8151 29.0002 35.8151 26.8665H23.8151ZM23.9623 26.3956C24.0322 26.2867 24.1076 26.2085 24.1599 26.1642C24.208 26.1236 24.2043 26.1388 24.1068 26.1852L29.2634 37.0207C31.1366 36.1293 32.8387 34.7821 34.0613 32.8771L23.9623 26.3956ZM24.094 26.1913C24.0865 26.1949 23.7893 26.3324 22.9827 26.3324V38.3324C25.0814 38.3324 27.2524 37.9836 29.2762 37.0147L24.094 26.1913ZM22.9827 26.3324C22.26 26.3324 21.9486 26.2146 21.8859 26.187L17.0439 37.1667C18.9632 38.0131 20.997 38.3324 22.9827 38.3324V26.3324ZM21.8986 26.1926C21.8192 26.1573 21.8141 26.1447 21.8515 26.1741C21.8694 26.1882 21.8935 26.2091 21.9206 26.2372C21.9477 26.2653 21.9738 26.2964 21.9973 26.3288L12.2792 33.3686C13.5364 35.1042 15.1939 36.3458 17.0313 37.1611L21.8986 26.1926ZM22.0154 26.354C22.0689 26.4286 22.1148 26.517 22.145 26.6037C22.1743 26.6875 22.1741 26.7269 22.172 26.6975L10.2025 27.5525C10.3489 29.6021 11.0052 31.5908 12.261 33.3434L22.0154 26.354ZM16.1872 33.125H18.5509V21.125H16.1872V33.125ZM12.573 27.6403C12.7297 29.4571 13.3949 31.3285 14.7996 32.8985L23.7425 24.897C24.0006 25.1854 24.2006 25.5123 24.3359 25.8454C24.468 26.1707 24.5142 26.441 24.5287 26.6097L12.573 27.6403ZM14.8555 32.9601C16.0047 34.2092 17.399 35.0677 18.8835 35.5908L22.8717 24.2729C23.0635 24.3405 23.3869 24.5096 23.6866 24.8354L14.8555 32.9601ZM18.9481 35.6131C20.2753 36.0639 21.6343 36.2642 22.9827 36.2642V24.2642C22.9029 24.2642 22.8533 24.2584 22.829 24.2545C22.8053 24.2508 22.7998 24.2481 22.8071 24.2505L18.9481 35.6131ZM22.9827 36.2642C24.5069 36.2642 26.0777 36.0161 27.5993 35.3967L23.0749 24.2823C23.136 24.2574 23.1693 24.252 23.1617 24.2533C23.1524 24.255 23.0962 24.2642 22.9827 24.2642V36.2642ZM27.6413 35.3794C29.1283 34.7609 30.5565 33.794 31.686 32.3736L22.2936 24.9049C22.6106 24.5062 22.937 24.3395 23.0329 24.2996L27.6413 35.3794ZM31.7077 32.3461C32.9868 30.7182 33.5992 28.7933 33.5992 26.8295H21.5992C21.5992 26.5772 21.6378 26.2489 21.7606 25.8842C21.8845 25.5163 22.0666 25.1935 22.2719 24.9323L31.7077 32.3461ZM33.5992 26.8295C33.5992 25.0253 33.0629 23.0012 31.5535 21.3063L22.5923 29.2874C22.2253 28.8753 21.9574 28.4033 21.7928 27.9241C21.6334 27.4599 21.5992 27.0732 21.5992 26.8295H33.5992ZM31.5535 21.3063C30.5226 20.1489 29.2925 19.3555 28.0586 18.8248L23.3173 29.8484C23.2283 29.8102 22.9214 29.6569 22.5923 29.2874L31.5535 21.3063ZM28.0586 18.8248C27.2129 18.4611 26.3362 18.1587 25.438 17.9092L22.2263 29.4714C22.6576 29.5913 23.0181 29.7198 23.3173 29.8484L28.0586 18.8248ZM25.4804 17.9212L23.1537 17.2564L19.8571 28.7947L22.1838 29.4595L25.4804 17.9212ZM23.1633 17.2592C22.3053 17.0125 22.0433 16.7765 22.0455 16.7785L13.9483 25.6348C15.674 27.2126 17.751 28.1892 19.8476 28.792L23.1633 17.2592ZM22.0455 16.7785C22.2286 16.9459 22.4275 17.2036 22.5634 17.5289C22.6943 17.842 22.7043 18.0672 22.7043 18.1136H10.7043C10.7043 20.9006 11.722 23.5994 13.9483 25.6348L22.0455 16.7785ZM22.7043 18.1136C22.7043 18.1297 22.7013 18.238 22.6499 18.4037C22.597 18.5743 22.514 18.7371 22.417 18.8705L12.7089 11.817C11.326 13.7203 10.7043 15.9043 10.7043 18.1136H22.7043ZM22.4121 18.8772C22.3978 18.8969 22.3804 18.9179 22.3606 18.9385C22.3409 18.959 22.3228 18.975 22.3085 18.9863C22.2778 19.0107 22.282 19 22.349 18.97L17.4303 8.02433C15.5897 8.85147 13.9586 10.1019 12.7138 11.8103L22.4121 18.8772ZM22.3647 18.9629C22.4753 18.9128 22.7093 18.8324 23.1673 18.8324V6.83239C21.2125 6.83239 19.2614 7.19515 17.4146 8.03143L22.3647 18.9629ZM23.1673 18.8324C23.663 18.8324 23.8663 18.9188 23.9052 18.9367L28.9295 8.03913C27.0726 7.18303 25.1092 6.83239 23.1673 6.83239V18.8324ZM23.9345 18.9501C24.0097 18.9843 24.0155 18.9965 23.9812 18.9695C23.9647 18.9565 23.9421 18.937 23.9164 18.9105C23.8905 18.8839 23.8652 18.8542 23.8418 18.8225L33.4985 11.6988C32.2695 10.0328 30.6691 8.8298 28.9002 8.02573L23.9345 18.9501ZM23.8607 18.848C23.7869 18.749 23.7042 18.6056 23.6427 18.428C23.5815 18.2514 23.5626 18.1031 23.5597 18.0116L35.5534 17.6247C35.4839 15.4694 34.7879 13.4272 33.4796 11.6733L23.8607 18.848ZM29.5566 11.8182H27.3406V23.8182H29.5566V11.8182Z" fill="black"/>
</svg>
