<svg width="28" height="24" viewBox="0 0 28 24" fill="none" xmlns="http://www.w3.org/2000/svg">
<path d="M13.6744 0L28 10.8H24.093V24H4.55814V10.8H0L13.6744 0Z" fill="#FF1304"/>
<path d="M13.6744 0L28 10.8H24.093V24H4.55814V10.8H0L13.6744 0Z" stroke="#B0B0B0"/>
<path d="M13.622 19.1818V7.36364H14.3791V19.1818H13.622ZM16.1703 10.9091C16.1149 10.4413 15.8903 10.0781 15.4963 9.8196C15.1024 9.56108 14.6192 9.43182 14.0467 9.43182C13.6282 9.43182 13.2619 9.49953 12.948 9.63494C12.6372 9.77036 12.394 9.95656 12.2186 10.1935C12.0463 10.4305 11.9601 10.6998 11.9601 11.0014C11.9601 11.2538 12.0201 11.4708 12.1401 11.6523C12.2632 11.8308 12.4202 11.9801 12.611 12.1001C12.8018 12.2171 13.0019 12.314 13.2112 12.391C13.4204 12.4648 13.6128 12.5249 13.7882 12.571L14.7484 12.8295C14.9947 12.8942 15.2686 12.9834 15.5702 13.0973C15.8749 13.2112 16.1657 13.3666 16.4427 13.5636C16.7228 13.7575 16.9536 14.0067 17.1352 14.3114C17.3167 14.6161 17.4075 14.9901 17.4075 15.4332C17.4075 15.9441 17.2737 16.4058 17.0059 16.8182C16.7412 17.2306 16.3534 17.5584 15.8426 17.8015C15.3347 18.0446 14.7177 18.1662 13.9913 18.1662C13.3143 18.1662 12.728 18.0569 12.2325 17.8384C11.74 17.6199 11.3523 17.3152 11.0691 16.9244C10.789 16.5335 10.6305 16.0795 10.5936 15.5625H11.7754C11.8062 15.9195 11.9262 16.215 12.1355 16.4489C12.3479 16.6797 12.6156 16.852 12.9388 16.9659C13.265 17.0767 13.6159 17.1321 13.9913 17.1321C14.4284 17.1321 14.8208 17.0613 15.1685 16.9197C15.5163 16.7751 15.7918 16.575 15.9949 16.3196C16.198 16.0611 16.2996 15.7595 16.2996 15.4148C16.2996 15.1009 16.2119 14.8454 16.0364 14.6484C15.861 14.4515 15.6302 14.2914 15.344 14.1683C15.0578 14.0452 14.7484 13.9375 14.4161 13.8452L13.2527 13.5128C12.5141 13.3004 11.9293 12.9973 11.4984 12.6033C11.0676 12.2094 10.8521 11.6939 10.8521 11.0568C10.8521 10.5275 10.9953 10.0658 11.2815 9.67188C11.5708 9.27486 11.9586 8.96709 12.4448 8.74858C12.9342 8.52699 13.4805 8.41619 14.0837 8.41619C14.693 8.41619 15.2347 8.52545 15.7087 8.74396C16.1826 8.9594 16.5581 9.25485 16.8351 9.63033C17.1152 10.0058 17.2629 10.4321 17.2783 10.9091H16.1703Z" fill="black"/>
<path d="M13.622 19.1818H10.622V22.1818H13.622V19.1818ZM13.622 7.36364V4.36364H10.622V7.36364H13.622ZM14.3791 7.36364H17.3791V4.36364H14.3791V7.36364ZM14.3791 19.1818V22.1818H17.3791V19.1818H14.3791ZM16.1703 10.9091L13.1911 11.2619L13.5046 13.9091H16.1703V10.9091ZM15.4963 9.8196L13.8503 12.3277L13.8503 12.3277L15.4963 9.8196ZM12.948 9.63494L11.7597 6.88029L11.7499 6.8846L12.948 9.63494ZM12.2186 10.1935L9.80739 8.4086L9.79986 8.41878L9.79241 8.42902L12.2186 10.1935ZM12.1401 11.6523L9.63748 13.3066L9.65375 13.3313L9.6705 13.3555L12.1401 11.6523ZM12.611 12.1001L11.0137 14.6395L11.0284 14.6488L11.0433 14.6579L12.611 12.1001ZM13.2112 12.391L12.176 15.2067L12.1943 15.2135L12.2127 15.2199L13.2112 12.391ZM13.7882 12.571L14.5681 9.67418L14.5599 9.67196L14.5517 9.6698L13.7882 12.571ZM14.7484 12.8295L13.9685 15.7264L13.9776 15.7288L13.9868 15.7312L14.7484 12.8295ZM15.5702 13.0973L14.5105 15.9039L14.5199 15.9075L15.5702 13.0973ZM16.4427 13.5636L14.7041 16.0084L14.7195 16.0194L14.7351 16.0301L16.4427 13.5636ZM17.1352 14.3114L19.7122 12.7756L19.7122 12.7756L17.1352 14.3114ZM17.0059 16.8182L14.4897 15.1845L14.4854 15.1912L14.4811 15.1978L17.0059 16.8182ZM15.8426 17.8015L14.5534 15.0926L14.547 15.0956L15.8426 17.8015ZM12.2325 17.8384L11.0156 20.5806L11.022 20.5834L12.2325 17.8384ZM11.0691 16.9244L8.63051 18.6717L8.63504 18.678L8.6396 18.6843L11.0691 16.9244ZM10.5936 15.5625V12.5625H7.37169L7.60124 15.7762L10.5936 15.5625ZM11.7754 15.5625L14.7643 15.3048L14.5279 12.5625H11.7754V15.5625ZM12.1355 16.4489L9.8998 18.4492L9.91366 18.4647L9.92773 18.48L12.1355 16.4489ZM12.9388 16.9659L11.9417 19.7954L11.9579 19.8011L11.974 19.8066L12.9388 16.9659ZM15.1685 16.9197L16.2997 19.6983L16.3102 19.6941L16.3207 19.6897L15.1685 16.9197ZM15.9949 16.3196L18.343 18.1868L18.3485 18.1799L18.3539 18.1731L15.9949 16.3196ZM16.0364 14.6484L18.2767 12.6532L18.2767 12.6532L16.0364 14.6484ZM15.344 14.1683L14.1586 16.9242L14.1586 16.9242L15.344 14.1683ZM14.4161 13.8452L13.5919 16.7297L13.6025 16.7328L13.6131 16.7357L14.4161 13.8452ZM13.2527 13.5128L12.4238 16.396L12.4285 16.3974L13.2527 13.5128ZM11.4984 12.6033L9.47414 14.8174L9.47414 14.8174L11.4984 12.6033ZM11.2815 9.67188L8.85689 7.90512L8.85444 7.90849L11.2815 9.67188ZM12.4448 8.74858L13.6745 11.485L13.6823 11.4814L12.4448 8.74858ZM15.7087 8.74396L14.4526 11.4684L14.4599 11.4717L14.4673 11.4751L15.7087 8.74396ZM16.8351 9.63033L14.4209 11.4113L14.4256 11.4177L14.4304 11.424L16.8351 9.63033ZM17.2783 10.9091V13.9091H20.3766L20.2767 10.8124L17.2783 10.9091ZM16.622 19.1818V7.36364H10.622V19.1818H16.622ZM13.622 10.3636H14.3791V4.36364H13.622V10.3636ZM11.3791 7.36364V19.1818H17.3791V7.36364H11.3791ZM14.3791 16.1818H13.622V22.1818H14.3791V16.1818ZM19.1495 10.5563C18.9899 9.20812 18.277 8.05609 17.1423 7.31146L13.8503 12.3277C13.7195 12.2419 13.5499 12.0919 13.409 11.8642C13.2681 11.6365 13.2096 11.4175 13.1911 11.2619L19.1495 10.5563ZM17.1423 7.31146C16.1631 6.66888 15.0772 6.43182 14.0467 6.43182V12.4318C14.1081 12.4318 14.1078 12.4388 14.0632 12.4269C14.0147 12.4139 13.937 12.3846 13.8503 12.3277L17.1423 7.31146ZM14.0467 6.43182C13.3088 6.43182 12.523 6.55104 11.7597 6.88031L14.1363 12.3896C14.0008 12.448 13.9475 12.4318 14.0467 12.4318V6.43182ZM11.7499 6.8846C11.0303 7.19805 10.3399 7.68918 9.80739 8.4086L14.6298 11.9785C14.4481 12.2239 14.244 12.3427 14.1462 12.3853L11.7499 6.8846ZM9.79241 8.42902C9.23561 9.19462 8.96009 10.0857 8.96009 11.0014H14.9601C14.9601 11.1402 14.9396 11.3075 14.882 11.4876C14.8241 11.6685 14.7398 11.8274 14.6448 11.9581L9.79241 8.42902ZM8.96009 11.0014C8.96009 11.746 9.14384 12.5599 9.63748 13.3066L14.6428 9.99805C14.8964 10.3817 14.9601 10.7616 14.9601 11.0014H8.96009ZM9.6705 13.3555C10.0338 13.8823 10.4923 14.3116 11.0137 14.6395L14.2084 9.56076C14.3481 9.64865 14.4927 9.77935 14.6098 9.94914L9.6705 13.3555ZM11.0433 14.6579C11.4021 14.8778 11.7804 15.0613 12.176 15.2067L14.2464 9.57524C14.2233 9.56678 14.2016 9.55636 14.1787 9.54234L11.0433 14.6579ZM12.2127 15.2199C12.4829 15.3153 12.7549 15.4012 13.0247 15.4722L14.5517 9.6698C14.4707 9.64849 14.3579 9.61436 14.2096 9.56201L12.2127 15.2199ZM13.0083 15.4679L13.9685 15.7264L15.5284 9.9327L14.5681 9.67418L13.0083 15.4679ZM13.9868 15.7312C14.1097 15.7635 14.2822 15.8177 14.5105 15.9039L16.6298 10.2907C16.255 10.1491 15.8796 10.0248 15.5101 9.92785L13.9868 15.7312ZM14.5199 15.9075C14.5695 15.926 14.6302 15.9558 14.7041 16.0084L18.1813 11.1187C17.7013 10.7774 17.1802 10.4964 16.6204 10.2871L14.5199 15.9075ZM14.7351 16.0301C14.6959 16.003 14.658 15.9703 14.6246 15.9342C14.5914 15.8983 14.57 15.8672 14.5581 15.8473L19.7122 12.7756C19.3201 12.1176 18.7981 11.5455 18.1503 11.097L14.7351 16.0301ZM14.5581 15.8473C14.4016 15.5847 14.4075 15.3971 14.4075 15.4332H20.4075C20.4075 14.583 20.2319 13.6475 19.7122 12.7756L14.5581 15.8473ZM14.4075 15.4332C14.4075 15.4237 14.4092 15.3843 14.4258 15.3271C14.4427 15.2689 14.4671 15.2193 14.4897 15.1845L19.5221 18.4518C20.1184 17.5334 20.4075 16.5001 20.4075 15.4332H14.4075ZM14.4811 15.1978C14.5161 15.1433 14.5538 15.1042 14.58 15.0821C14.604 15.0618 14.6021 15.0694 14.5534 15.0926L17.1317 20.5104C18.0683 20.0647 18.9194 19.391 19.5307 18.4386L14.4811 15.1978ZM14.547 15.0956C14.5433 15.0974 14.3947 15.1662 13.9913 15.1662V21.1662C15.0407 21.1662 16.1262 20.9918 17.1381 20.5073L14.547 15.0956ZM13.9913 15.1662C13.63 15.1662 13.4743 15.1073 13.443 15.0935L11.022 20.5834C11.9816 21.0066 12.9985 21.1662 13.9913 21.1662V15.1662ZM13.4493 15.0963C13.4096 15.0787 13.4071 15.0724 13.4258 15.0871C13.4347 15.0941 13.4467 15.1046 13.4603 15.1186C13.4739 15.1327 13.4869 15.1482 13.4986 15.1644L8.6396 18.6843C9.26821 19.5521 10.097 20.1729 11.0156 20.5806L13.4493 15.0963ZM13.5077 15.177C13.5344 15.2143 13.5574 15.2585 13.5725 15.3018C13.5871 15.3437 13.587 15.3635 13.586 15.3488L7.60124 15.7762C7.67444 16.801 8.00262 17.7954 8.63051 18.6717L13.5077 15.177ZM10.5936 18.5625H11.7754V12.5625H10.5936V18.5625ZM8.78652 15.8202C8.86483 16.7285 9.19744 17.6643 9.8998 18.4492L14.3712 14.4485C14.5003 14.5927 14.6003 14.7562 14.6679 14.9227C14.734 15.0854 14.7571 15.2205 14.7643 15.3048L8.78652 15.8202ZM9.92773 18.48C10.5023 19.1046 11.1995 19.5338 11.9417 19.7954L13.9358 14.1364C14.0318 14.1702 14.1934 14.2548 14.3433 14.4177L9.92773 18.48ZM11.974 19.8066C12.6376 20.0319 13.3171 20.1321 13.9913 20.1321V14.1321C13.9514 14.1321 13.9266 14.1292 13.9145 14.1273C13.9027 14.1254 13.8999 14.124 13.9035 14.1253L11.974 19.8066ZM13.9913 20.1321C14.7535 20.1321 15.5389 20.008 16.2997 19.6983L14.0374 14.1411C14.068 14.1287 14.0846 14.126 14.0808 14.1267C14.0762 14.1275 14.0481 14.1321 13.9913 14.1321V20.1321ZM16.3207 19.6897C17.0642 19.3805 17.7783 18.897 18.343 18.1868L13.6468 14.4524C13.8053 14.2531 13.9685 14.1697 14.0164 14.1498L16.3207 19.6897ZM18.3539 18.1731C18.9934 17.3591 19.2996 16.3966 19.2996 15.4148H13.2996C13.2996 15.2886 13.3189 15.1244 13.3803 14.9421C13.4422 14.7581 13.5333 14.5968 13.6359 14.4661L18.3539 18.1731ZM19.2996 15.4148C19.2996 14.5127 19.0315 13.5006 18.2767 12.6532L13.7961 16.6437C13.6126 16.4376 13.4787 16.2016 13.3964 15.962C13.3167 15.73 13.2996 15.5366 13.2996 15.4148H19.2996ZM18.2767 12.6532C17.7613 12.0745 17.1462 11.6778 16.5293 11.4124L14.1586 16.9242C14.1141 16.9051 13.9607 16.8285 13.7961 16.6437L18.2767 12.6532ZM16.5293 11.4124C16.1064 11.2305 15.6681 11.0794 15.219 10.9546L13.6131 16.7357C13.8288 16.7956 14.0091 16.8599 14.1586 16.9242L16.5293 11.4124ZM15.2402 10.9606L14.0769 10.6282L12.4285 16.3974L13.5919 16.7297L15.2402 10.9606ZM14.0816 10.6296C13.6527 10.5062 13.5216 10.3882 13.5228 10.3893L9.47414 14.8174C10.337 15.6063 11.3755 16.0946 12.4238 16.396L14.0816 10.6296ZM13.5228 10.3893C13.6143 10.4729 13.7137 10.6018 13.7817 10.7645C13.8471 10.921 13.8521 11.0336 13.8521 11.0568H7.85214C7.85214 12.4503 8.36099 13.7997 9.47414 14.8174L13.5228 10.3893ZM13.8521 11.0568C13.8521 11.0648 13.8506 11.119 13.8249 11.2019C13.7985 11.2872 13.757 11.3685 13.7085 11.4353L8.85444 7.90849C8.163 8.86015 7.85214 9.95213 7.85214 11.0568H13.8521ZM13.7061 11.4386C13.6989 11.4485 13.6902 11.459 13.6803 11.4692C13.6705 11.4795 13.6614 11.4875 13.6543 11.4932C13.6389 11.5053 13.641 11.5 13.6745 11.485L11.2152 6.01217C10.2948 6.42574 9.47931 7.05096 8.85689 7.90513L13.7061 11.4386ZM13.6823 11.4814C13.7376 11.4564 13.8546 11.4162 14.0837 11.4162V5.41619C13.1063 5.41619 12.1307 5.59757 11.2073 6.01572L13.6823 11.4814ZM14.0837 11.4162C14.3315 11.4162 14.4332 11.4594 14.4526 11.4684L16.9647 6.01957C16.0363 5.59152 15.0546 5.41619 14.0837 5.41619V11.4162ZM14.4673 11.4751C14.5048 11.4921 14.5078 11.4983 14.4906 11.4847C14.4823 11.4783 14.4711 11.4685 14.4582 11.4552C14.4453 11.442 14.4326 11.4271 14.4209 11.4113L19.2493 7.84938C18.6348 7.0164 17.8346 6.4149 16.9501 6.01286L14.4673 11.4751ZM14.4304 11.424C14.3934 11.3745 14.3521 11.3028 14.3213 11.214C14.2907 11.1257 14.2813 11.0515 14.2798 11.0058L20.2767 10.8124C20.242 9.73468 19.894 8.71362 19.2398 7.83664L14.4304 11.424ZM17.2783 7.90909H16.1703V13.9091H17.2783V7.90909Z" fill="white"/>
</svg>
